<svg xmlns="http://www.w3.org/2000/svg" viewBox="0 0 320 320" width="320" height="320" preserveAspectRatio="xMidYMid slice" style="width: 100%; height: 100%; transform: translate3d(0px, 0px, 0px);"><defs><clipPath id="__lottie_element_2"><rect width="320" height="320" x="0" y="0"></rect></clipPath></defs><g clip-path="url(#__lottie_element_2)"><g transform="matrix(3.7760300636291504,0,0,3.7760300636291504,160.14199829101562,159.98699951171875)" opacity="1" style="display: block;"><g opacity="1" transform="matrix(1,0,0,1,-0.03799999877810478,0.003000000026077032)"><path fill="rgb(255,255,255)" fill-opacity="1" d=" M0,-11.157500267028809 C6.157824516296387,-11.157500267028809 11.157500267028809,-6.157824516296387 11.157500267028809,0 C11.157500267028809,6.157824516296387 6.157824516296387,11.157500267028809 0,11.157500267028809 C-6.157824516296387,11.157500267028809 -11.157500267028809,6.157824516296387 -11.157500267028809,0 C-11.157500267028809,-6.157824516296387 -6.157824516296387,-11.157500267028809 0,-11.157500267028809z"></path><path stroke-linecap="butt" stroke-linejoin="miter" fill-opacity="0" stroke-miterlimit="4" stroke="rgb(213,213,213)" stroke-opacity="1" stroke-width="1" d=" M0,-11.157500267028809 C6.157824516296387,-11.157500267028809 11.157500267028809,-6.157824516296387 11.157500267028809,0 C11.157500267028809,6.157824516296387 6.157824516296387,11.157500267028809 0,11.157500267028809 C-6.157824516296387,11.157500267028809 -11.157500267028809,6.157824516296387 -11.157500267028809,0 C-11.157500267028809,-6.157824516296387 -6.157824516296387,-11.157500267028809 0,-11.157500267028809z"></path></g></g><g style="display: block;" transform="matrix(4.760000228881836,0,0,4.760000228881836,161,160)" opacity="1"><g opacity="1" transform="matrix(6.491119861602783,0,0,6.491119861602783,-0.33799999952316284,0.06499999761581421)"><path fill="rgb(133,218,180)" fill-opacity="0" d=" M0,-3.004499912261963 C1.6581834554672241,-3.004499912261963 3.004499912261963,-1.6581834554672241 3.004499912261963,0 C3.004499912261963,1.6581834554672241 1.6581834554672241,3.004499912261963 0,3.004499912261963 C-1.6581834554672241,3.004499912261963 -3.004499912261963,1.6581834554672241 -3.004499912261963,0 C-3.004499912261963,-1.6581834554672241 -1.6581834554672241,-3.004499912261963 0,-3.004499912261963z"></path><path stroke-linecap="butt" stroke-linejoin="miter" fill-opacity="0" stroke-miterlimit="4" stroke="rgb(27,170,100)" stroke-opacity="1" stroke-width="0" d=" M0,-3.004499912261963 C1.6581834554672241,-3.004499912261963 3.004499912261963,-1.6581834554672241 3.004499912261963,0 C3.004499912261963,1.6581834554672241 1.6581834554672241,3.004499912261963 0,3.004499912261963 C-1.6581834554672241,3.004499912261963 -3.004499912261963,1.6581834554672241 -3.004499912261963,0 C-3.004499912261963,-1.6581834554672241 -1.6581834554672241,-3.004499912261963 0,-3.004499912261963z"></path></g></g><g style="display: block;" transform="matrix(8.779999732971191,0,0,8.779999732971191,153.18263244628906,166.1223602294922)" opacity="1"><g opacity="1" transform="matrix(1,0,0,1,0.7839999794960022,-0.7160000205039978)"><path fill="rgb(133,218,180)" fill-opacity="1" d=" M0,-5.033999919891357 C2.7782645225524902,-5.033999919891357 5.033999919891357,-2.7782645225524902 5.033999919891357,0 C5.033999919891357,2.7782645225524902 2.7782645225524902,5.033999919891357 0,5.033999919891357 C-2.7782645225524902,5.033999919891357 -5.033999919891357,2.7782645225524902 -5.033999919891357,0 C-5.033999919891357,-2.7782645225524902 -2.7782645225524902,-5.033999919891357 0,-5.033999919891357z"></path></g></g><g style="display: none;" transform="matrix(10.465821266174316,0,0,10.465821266174316,160,160)" opacity="0.019501468244912345"><g opacity="1" transform="matrix(1,0,0,1,-0.06800000369548798,0.035999998450279236)"><path fill="rgb(133,218,180)" fill-opacity="1" d=" M0,-9.88949966430664 C5.458014965057373,-9.88949966430664 9.88949966430664,-5.458014965057373 9.88949966430664,0 C9.88949966430664,5.458014965057373 5.458014965057373,9.88949966430664 0,9.88949966430664 C-5.458014965057373,9.88949966430664 -9.88949966430664,5.458014965057373 -9.88949966430664,0 C-9.88949966430664,-5.458014965057373 -5.458014965057373,-9.88949966430664 0,-9.88949966430664z"></path></g></g><g style="display: block;" transform="matrix(0.46673786640167236,-0.4507234990596771,0.4507234990596771,0.46673786640167236,156.50146484375,160.494384765625)" opacity="1"><g opacity="1" transform="matrix(1,0,0,1,0,0)"><path stroke-linecap="round" stroke-linejoin="miter" fill-opacity="0" stroke-miterlimit="5" stroke="rgb(255,255,255)" stroke-opacity="1" stroke-width="8" d=" M-17,-16 C-17,-16 -17,10.5 -17,10.5 C-17,10.5 41,10.5 41,10.5"></path></g><g opacity="1" transform="matrix(1,0,0,1,0,0)"><path stroke-linecap="butt" stroke-linejoin="miter" fill-opacity="0" stroke-miterlimit="4" stroke="rgb(255,255,255)" stroke-opacity="1" stroke-width="8" d=" M-274.218994140625,-254.0970001220703"></path></g></g><g style="display: block;" transform="matrix(1,0,0,1,160,193.5)" opacity="1"><g opacity="1" transform="matrix(0.9618397355079651,0.15463000535964966,-0.18412302434444427,1.1452940702438354,27.725284576416016,-181.64593505859375)"><path fill="rgb(0,231,130)" fill-opacity="1" d=" M0,-0.5006999969482422 C0.27633634209632874,-0.5006999969482422 0.5006999969482422,-0.27633634209632874 0.5006999969482422,0 C0.5006999969482422,0.27633634209632874 0.27633634209632874,0.5006999969482422 0,0.5006999969482422 C-0.27633634209632874,0.5006999969482422 -0.5006999969482422,0.27633634209632874 -0.5006999969482422,0 C-0.5006999969482422,-0.27633634209632874 -0.27633634209632874,-0.5006999969482422 0,-0.5006999969482422z"></path></g><g opacity="1" transform="matrix(0.834630012512207,0.09313202649354935,-0.11089654266834259,0.9938319325447083,-7.675000190734863,-162.54400634765625)"><path fill="rgb(0,202,113)" fill-opacity="1" d=" M0,0 C0,0 0,0 0,0 C0,0 0,0 0,0 C0,0 0,0 0,0 C0,0 0,0 0,0z"></path></g></g><g style="display: block;" transform="matrix(0.6427876353263855,0.7660444378852844,-0.7660444378852844,0.6427876353263855,133.95448303222656,181.3547821044922)" opacity="1"><g opacity="1" transform="matrix(0.9618397355079651,0.15463000535964966,-0.18412302434444427,1.1452940702438354,27.725284576416016,-181.64593505859375)"><path fill="rgb(0,231,130)" fill-opacity="1" d=" M0,-0.5006999969482422 C0.27633634209632874,-0.5006999969482422 0.5006999969482422,-0.27633634209632874 0.5006999969482422,0 C0.5006999969482422,0.27633634209632874 0.27633634209632874,0.5006999969482422 0,0.5006999969482422 C-0.27633634209632874,0.5006999969482422 -0.5006999969482422,0.27633634209632874 -0.5006999969482422,0 C-0.5006999969482422,-0.27633634209632874 -0.27633634209632874,-0.5006999969482422 0,-0.5006999969482422z"></path></g><g opacity="1" transform="matrix(0.834630012512207,0.09313202649354935,-0.11089654266834259,0.9938319325447083,-7.675000190734863,-162.54400634765625)"><path fill="rgb(0,202,113)" fill-opacity="1" d=" M0,0 C0,0 0,0 0,0 C0,0 0,0 0,0 C0,0 0,0 0,0 C0,0 0,0 0,0z"></path></g></g><g style="display: block;" transform="matrix(-0.1736481785774231,0.9848077297210693,-0.9848077297210693,-0.1736481785774231,126.51654052734375,153.59596252441406)" opacity="1"><g opacity="1" transform="matrix(0.9618397355079651,0.15463000535964966,-0.18412302434444427,1.1452940702438354,27.725284576416016,-181.64593505859375)"><path fill="rgb(0,231,130)" fill-opacity="1" d=" M0,-0.5006999969482422 C0.27633634209632874,-0.5006999969482422 0.5006999969482422,-0.27633634209632874 0.5006999969482422,0 C0.5006999969482422,0.27633634209632874 0.27633634209632874,0.5006999969482422 0,0.5006999969482422 C-0.27633634209632874,0.5006999969482422 -0.5006999969482422,0.27633634209632874 -0.5006999969482422,0 C-0.5006999969482422,-0.27633634209632874 -0.27633634209632874,-0.5006999969482422 0,-0.5006999969482422z"></path></g><g opacity="1" transform="matrix(0.834630012512207,0.09313202649354935,-0.11089654266834259,0.9938319325447083,-7.675000190734863,-162.54400634765625)"><path fill="rgb(0,202,113)" fill-opacity="1" d=" M0,0 C0,0 0,0 0,0 C0,0 0,0 0,0 C0,0 0,0 0,0 C0,0 0,0 0,0z"></path></g></g><g style="display: block;" transform="matrix(-0.8660253882408142,0.5,-0.5,-0.8660253882408142,143,130.0551300048828)" opacity="1"><g opacity="1" transform="matrix(0.9618397355079651,0.15463000535964966,-0.18412302434444427,1.1452940702438354,27.725284576416016,-181.64593505859375)"><path fill="rgb(0,231,130)" fill-opacity="1" d=" M0,-0.5006999969482422 C0.27633634209632874,-0.5006999969482422 0.5006999969482422,-0.27633634209632874 0.5006999969482422,0 C0.5006999969482422,0.27633634209632874 0.27633634209632874,0.5006999969482422 0,0.5006999969482422 C-0.27633634209632874,0.5006999969482422 -0.5006999969482422,0.27633634209632874 -0.5006999969482422,0 C-0.5006999969482422,-0.27633634209632874 -0.27633634209632874,-0.5006999969482422 0,-0.5006999969482422z"></path></g><g opacity="1" transform="matrix(0.834630012512207,0.09313202649354935,-0.11089654266834259,0.9938319325447083,-7.675000190734863,-162.54400634765625)"><path fill="rgb(0,202,113)" fill-opacity="1" d=" M0,0 C0,0 0,0 0,0 C0,0 0,0 0,0 C0,0 0,0 0,0 C0,0 0,0 0,0z"></path></g></g><g style="display: block;" transform="matrix(-0.9396926164627075,-0.3420201539993286,0.3420201539993286,-0.9396926164627075,171.62869262695312,127.55045318603516)" opacity="1"><g opacity="1" transform="matrix(0.9618397355079651,0.15463000535964966,-0.18412302434444427,1.1452940702438354,27.725284576416016,-181.64593505859375)"><path fill="rgb(0,231,130)" fill-opacity="1" d=" M0,-0.5006999969482422 C0.27633634209632874,-0.5006999969482422 0.5006999969482422,-0.27633634209632874 0.5006999969482422,0 C0.5006999969482422,0.27633634209632874 0.27633634209632874,0.5006999969482422 0,0.5006999969482422 C-0.27633634209632874,0.5006999969482422 -0.5006999969482422,0.27633634209632874 -0.5006999969482422,0 C-0.5006999969482422,-0.27633634209632874 -0.27633634209632874,-0.5006999969482422 0,-0.5006999969482422z"></path></g><g opacity="1" transform="matrix(0.834630012512207,0.09313202649354935,-0.11089654266834259,0.9938319325447083,-7.675000190734863,-162.54400634765625)"><path fill="rgb(0,202,113)" fill-opacity="1" d=" M0,0 C0,0 0,0 0,0 C0,0 0,0 0,0 C0,0 0,0 0,0 C0,0 0,0 0,0z"></path></g></g><g style="display: block;" transform="matrix(-0.3420201539993286,-0.9396926164627075,0.9396926164627075,-0.3420201539993286,191.94955444335938,147.87130737304688)" opacity="1"><g opacity="1" transform="matrix(0.9618397355079651,0.15463000535964966,-0.18412302434444427,1.1452940702438354,27.725284576416016,-181.64593505859375)"><path fill="rgb(0,231,130)" fill-opacity="1" d=" M0,-0.5006999969482422 C0.27633634209632874,-0.5006999969482422 0.5006999969482422,-0.27633634209632874 0.5006999969482422,0 C0.5006999969482422,0.27633634209632874 0.27633634209632874,0.5006999969482422 0,0.5006999969482422 C-0.27633634209632874,0.5006999969482422 -0.5006999969482422,0.27633634209632874 -0.5006999969482422,0 C-0.5006999969482422,-0.27633634209632874 -0.27633634209632874,-0.5006999969482422 0,-0.5006999969482422z"></path></g><g opacity="1" transform="matrix(0.834630012512207,0.09313202649354935,-0.11089654266834259,0.9938319325447083,-7.675000190734863,-162.54400634765625)"><path fill="rgb(0,202,113)" fill-opacity="1" d=" M0,0 C0,0 0,0 0,0 C0,0 0,0 0,0 C0,0 0,0 0,0 C0,0 0,0 0,0z"></path></g></g><g style="display: block;" transform="matrix(0.5,-0.8660253882408142,0.8660253882408142,0.5,189.4448699951172,176.5)" opacity="1"><g opacity="1" transform="matrix(0.9618397355079651,0.15463000535964966,-0.18412302434444427,1.1452940702438354,27.725284576416016,-181.64593505859375)"><path fill="rgb(0,231,130)" fill-opacity="1" d=" M0,-0.5006999969482422 C0.27633634209632874,-0.5006999969482422 0.5006999969482422,-0.27633634209632874 0.5006999969482422,0 C0.5006999969482422,0.27633634209632874 0.27633634209632874,0.5006999969482422 0,0.5006999969482422 C-0.27633634209632874,0.5006999969482422 -0.5006999969482422,0.27633634209632874 -0.5006999969482422,0 C-0.5006999969482422,-0.27633634209632874 -0.27633634209632874,-0.5006999969482422 0,-0.5006999969482422z"></path></g><g opacity="1" transform="matrix(0.834630012512207,0.09313202649354935,-0.11089654266834259,0.9938319325447083,-7.675000190734863,-162.54400634765625)"><path fill="rgb(0,202,113)" fill-opacity="1" d=" M0,0 C0,0 0,0 0,0 C0,0 0,0 0,0 C0,0 0,0 0,0 C0,0 0,0 0,0z"></path></g></g></g></svg>